<?xml version="1.0" encoding="utf-8"?>
<!-- Generator: Adobe Illustrator 27.8.1, SVG Export Plug-In . SVG Version: 6.00 Build 0)  -->
<svg version="1.1" id="Camada_1" xmlns="http://www.w3.org/2000/svg" xmlns:xlink="http://www.w3.org/1999/xlink" x="0px" y="0px"
	 viewBox="0 0 450 450" style="enable-background:new 0 0 450 450;" xml:space="preserve">
<style type="text/css">
	.st0{fill:#F7AE5E;}
	.st1{fill:#F07F1A;}
</style>
<g>
	<path class="st0" d="M162.16,246.19l-51.28,87.88c-1.39,2.38-3.93,3.84-6.68,3.84H61.99c-2.98,0-4.84-3.24-3.34-5.82l73.76-126.41
		c1.5-2.57,5.23-2.55,6.7,0.04L162.16,246.19z"/>
	<path class="st1" d="M214.3,337.73l-0.08,0.17h-50.1c-2.98,0-4.84-3.24-3.34-5.82l25.45-43.63L214.3,337.73z"/>
	<path class="st1" d="M391.19,293.76l-18.07,39.62c-1.26,2.76-4.01,4.52-7.04,4.52h-48.88l20.19-44.26
		c1.03-2.26,0.91-4.88-0.32-7.04l-96.1-168.73c-1.47-2.58,0.39-5.78,3.36-5.78h42.57c2.78,0,5.34,1.49,6.72,3.91l97.23,170.72
		C392.1,288.88,392.22,291.5,391.19,293.76z"/>
	<path class="st0" d="M288.2,293.76l-18.07,39.62c-1.26,2.76-4.01,4.52-7.04,4.52h-48.88l20.19-44.26c1.03-2.26,0.91-4.88-0.32-7.04
		L138,117.88c-1.47-2.58,0.39-5.78,3.36-5.78h42.57c2.78,0,5.34,1.49,6.72,3.91l97.23,170.72
		C289.12,288.88,289.24,291.5,288.2,293.76z"/>
</g>
</svg>
