<?xml version="1.0" encoding="utf-8"?>
<!-- Generator: Adobe Illustrator 27.8.1, SVG Export Plug-In . SVG Version: 6.00 Build 0)  -->
<svg version="1.1" id="Camada_1" xmlns="http://www.w3.org/2000/svg" xmlns:xlink="http://www.w3.org/1999/xlink" x="0px" y="0px"
	 viewBox="0 0 2500 2500" style="enable-background:new 0 0 2500 2500;" xml:space="preserve">
<style type="text/css">
	.st0{fill:#F6AD5D;}
	.st1{fill:#EF7E19;}
	.st2{fill:#FFFFFF;}
</style>
<circle class="st0" cx="1250" cy="1250" r="1249.35"/>
<circle class="st0" cx="1250" cy="1250" r="1248.07"/>
<path class="st1" d="M1705.31,1789.03H853.94c-121.07,0-226.69-91.45-226.69-212.52v-1.29v70.84
	c0,121.08,105.61,226.69,226.68,226.69h851.37c122.36,0,226.69-106.9,226.69-226.69v-70.83
	C1931.99,1696.29,1826.38,1789.03,1705.31,1789.03z M625.97,1178.52v-96.6L467.54,820.45c-9.02-14.17-12.88-27.05-11.59-39.93
	v110.77c0,10.31,3.86,20.61,10.3,32.2L625.97,1178.52z"/>
<path class="st2" d="M1705.31,738.02H512.62c-47.66,0-74.7,41.22-42.5,85.01l155.85,270.48v483c0,123.65,90.16,226.69,212.52,226.69
	h865.53c122.36,0,226.69-104.32,226.69-226.69V966C1931.99,842.35,1827.66,738.02,1705.31,738.02z"/>
<g>
	<path class="st0" d="M1126.11,1301.12l-125.27,214.69c-3.39,5.8-9.6,9.37-16.32,9.37H881.38c-7.29,0-11.83-7.91-8.16-14.21
		l180.21-308.83c3.67-6.29,12.77-6.24,16.37,0.09L1126.11,1301.12z"/>
	<path class="st1" d="M1253.49,1524.77l-0.19,0.42h-122.4c-7.29,0-11.83-7.91-8.16-14.21l62.18-106.58L1253.49,1524.77z"/>
	<path class="st1" d="M1685.63,1417.35l-44.15,96.78c-3.07,6.73-9.79,11.05-17.19,11.05h-119.4l49.33-108.12
		c2.52-5.52,2.23-11.92-0.77-17.19l-234.77-412.22c-3.59-6.3,0.96-14.12,8.21-14.12h104.01c6.79,0,13.06,3.64,16.42,9.54
		l237.54,417.08C1687.86,1405.43,1688.15,1411.82,1685.63,1417.35z"/>
	<path class="st0" d="M1434.03,1417.35l-44.15,96.78c-3.07,6.73-9.79,11.05-17.19,11.05h-119.4l49.33-108.12
		c2.52-5.52,2.23-11.92-0.77-17.19l-234.77-412.22c-3.59-6.3,0.96-14.12,8.21-14.12h104.01c6.79,0,13.06,3.64,16.42,9.54
		l237.54,417.08C1436.27,1405.43,1436.55,1411.82,1434.03,1417.35z"/>
</g>
</svg>
